<svg width="300" height="166" viewBox="0 0 300 166" fill="none" xmlns="http://www.w3.org/2000/svg">
<g clip-path="url(#clip0)">
<path d="M269.085 86.6236H61.066C60.3382 86.6228 59.6405 86.3333 59.1258 85.8187C58.6112 85.304 58.3217 84.6063 58.3209 83.8785V2.74512C58.3217 2.01732 58.6112 1.31956 59.1258 0.804934C59.6405 0.290303 60.3382 0.000827038 61.066 7.62939e-06H269.085C269.812 0.000827844 270.51 0.290307 271.025 0.804938C271.539 1.31957 271.829 2.01732 271.83 2.74512V83.8785C271.829 84.6063 271.539 85.304 271.025 85.8187C270.51 86.3333 269.812 86.6228 269.085 86.6236ZM61.066 0.610033C60.4999 0.610692 59.9573 0.835846 59.557 1.23611C59.1567 1.63637 58.9316 2.17906 58.9309 2.74512V83.8785C58.9316 84.4446 59.1567 84.9872 59.557 85.3875C59.9573 85.7878 60.4999 86.0129 61.066 86.0136H269.085C269.651 86.0129 270.193 85.7878 270.594 85.3875C270.994 84.9872 271.219 84.4446 271.22 83.8785V2.74512C271.219 2.17906 270.994 1.63638 270.594 1.23612C270.193 0.835851 269.651 0.610693 269.085 0.610033H61.066Z" fill="#3F3D56"/>
<path d="M158.193 52.5307H143.001C142.051 44.0797 144.147 37.7806 143.001 34.3004H158.193C157.609 40.3631 157.609 46.468 158.193 52.5307Z" fill="#FFDD65"/>
<path d="M15.4469 129.699H0.254957C-0.695194 121.248 1.40115 114.949 0.254957 111.469H15.4469C14.8632 117.531 14.8632 123.636 15.4469 129.699V129.699Z" fill="#FFDD65"/>
<path d="M250.612 69.3064H235.42C234.47 60.8554 236.566 54.5563 235.42 51.076H250.612C250.028 57.1388 250.028 63.2436 250.612 69.3064V69.3064Z" fill="#279CFF"/>
<path d="M80.0405 60.3281H64.8485C65.4182 53.3184 67.2548 46.7728 64.8485 42.0977H80.0405C82.9008 48.1745 82.9008 54.2513 80.0405 60.3281Z" fill="#E6E6E6"/>
<path d="M92.241 83.8141H77.049C77.6187 76.8043 79.4553 70.2587 77.049 65.5837H92.241C95.1013 71.6605 95.1013 77.7373 92.241 83.8141Z" fill="#E6E6E6"/>
<path d="M226.447 40.8073H211.255C211.824 33.7976 213.661 27.252 211.255 22.5769H226.447C229.307 28.6537 229.307 34.7305 226.447 40.8073Z" fill="#279CFF"/>
<path d="M181.61 64.5983H166.418C166.987 57.5885 168.824 51.0429 166.418 46.3679H181.61C184.47 52.4447 184.47 58.5215 181.61 64.5983Z" fill="#E6E6E6"/>
<path d="M95.5701 44.7985H110.762C111.712 37.7875 109.616 31.2421 110.762 26.5682H95.5701C92.7098 32.6449 92.7098 38.7217 95.5701 44.7985Z" fill="#3F3D56"/>
<path d="M105.903 11.2855H77.5367C77.3749 11.2855 77.2197 11.2212 77.1053 11.1068C76.9909 10.9924 76.9267 10.8372 76.9267 10.6755C76.9267 10.5137 76.9909 10.3585 77.1053 10.2441C77.2197 10.1297 77.3749 10.0654 77.5367 10.0654H105.903C106.065 10.0654 106.22 10.1297 106.334 10.2441C106.449 10.3585 106.513 10.5137 106.513 10.6755C106.513 10.8372 106.449 10.9924 106.334 11.1068C106.22 11.2212 106.065 11.2855 105.903 11.2855Z" fill="#3F3D56"/>
<path d="M179.411 11.2855H151.045C150.883 11.2855 150.728 11.2212 150.613 11.1068C150.499 10.9924 150.435 10.8372 150.435 10.6755C150.435 10.5137 150.499 10.3585 150.613 10.2441C150.728 10.1297 150.883 10.0654 151.045 10.0654H179.411C179.573 10.0654 179.728 10.1297 179.842 10.2441C179.957 10.3585 180.021 10.5137 180.021 10.6755C180.021 10.8372 179.957 10.9924 179.842 11.1068C179.728 11.2212 179.573 11.2855 179.411 11.2855Z" fill="#3F3D56"/>
<path d="M252.919 11.2855H224.553C224.391 11.2855 224.236 11.2212 224.121 11.1068C224.007 10.9924 223.943 10.8372 223.943 10.6755C223.943 10.5137 224.007 10.3585 224.121 10.2441C224.236 10.1297 224.391 10.0654 224.553 10.0654H252.919C253.081 10.0654 253.236 10.1297 253.35 10.2441C253.465 10.3585 253.529 10.5137 253.529 10.6755C253.529 10.8372 253.465 10.9924 253.35 11.1068C253.236 11.2212 253.081 11.2855 252.919 11.2855Z" fill="#3F3D56"/>
<path d="M128.779 0.305012H128.169V86.3186H128.779V0.305012Z" fill="#3F3D56"/>
<path d="M202.287 0.305012H201.677V86.3186H202.287V0.305012Z" fill="#3F3D56"/>
<path d="M48.3809 79.8131C57.3964 79.8131 64.7049 72.5046 64.7049 63.4891C64.7049 54.4736 57.3964 47.1651 48.3809 47.1651C39.3654 47.1651 32.0569 54.4736 32.0569 63.4891C32.0569 72.5046 39.3654 79.8131 48.3809 79.8131Z" fill="#279CFF"/>
<path d="M45.8088 165.774H41.3071C40.7814 165.773 40.2775 165.564 39.9058 165.192C39.5342 164.821 39.3251 164.317 39.3245 163.791V126.27C39.3251 125.745 39.5342 125.241 39.9058 124.869C40.2775 124.498 40.7814 124.288 41.3071 124.288H45.8088C46.3345 124.288 46.8384 124.498 47.2101 124.869C47.5817 125.241 47.7908 125.745 47.7914 126.27V163.791C47.7908 164.317 47.5817 164.821 47.2101 165.192C46.8384 165.564 46.3345 165.773 45.8088 165.774V165.774Z" fill="#279CFF"/>
<path d="M54.7129 165.774H50.211C49.6853 165.773 49.1814 165.564 48.8097 165.192C48.4381 164.821 48.229 164.317 48.2284 163.791V126.27C48.229 125.745 48.4381 125.241 48.8098 124.869C49.1814 124.498 49.6853 124.288 50.211 124.288H54.7129C55.2385 124.288 55.7424 124.498 56.1141 124.869C56.4858 125.241 56.6949 125.745 56.6955 126.27V163.791C56.6949 164.317 56.4858 164.821 56.1141 165.192C55.7424 165.564 55.2385 165.773 54.7129 165.774Z" fill="#279CFF"/>
<path d="M12.5674 118.932C12.3598 118.931 12.1536 118.899 11.9562 118.835C11.708 118.756 11.4781 118.628 11.2798 118.459C11.0814 118.29 10.9185 118.084 10.8005 117.851L8.74936 113.844C8.63074 113.612 8.55893 113.359 8.53804 113.1C8.51715 112.84 8.54758 112.579 8.6276 112.331C8.70762 112.084 8.83566 111.854 9.00441 111.656C9.17315 111.458 9.3793 111.295 9.61108 111.176L43.011 94.0806C43.2428 93.962 43.4957 93.8902 43.7552 93.8693C44.0147 93.8484 44.2758 93.8788 44.5236 93.9588C44.7714 94.0388 45.001 94.1669 45.1993 94.3356C45.3976 94.5044 45.5607 94.7105 45.6793 94.9423L47.7304 98.9498C47.9699 99.4178 48.0137 99.9618 47.8521 100.462C47.6906 100.963 47.3369 101.378 46.8689 101.618L13.4687 118.713C13.1899 118.856 12.8809 118.931 12.5674 118.932V118.932Z" fill="#279CFF"/>
<path d="M58.4298 101.53C57.958 101.53 57.5018 101.361 57.1442 101.054L53.7229 98.128C53.3239 97.7859 53.0768 97.2994 53.0358 96.7754C52.9949 96.2514 53.1635 95.7325 53.5046 95.3325L77.89 66.8162C78.232 66.4171 78.7184 66.1701 79.2425 66.1292C79.7665 66.0883 80.2853 66.257 80.6851 66.5982H80.6853L84.1067 69.5241C84.3046 69.6933 84.4672 69.8998 84.5853 70.1319C84.7033 70.3639 84.7745 70.6169 84.7948 70.8765C84.815 71.1361 84.784 71.3971 84.7033 71.6446C84.6227 71.8922 84.4941 72.1214 84.3249 72.3193L59.9396 100.836C59.7709 101.034 59.5645 101.197 59.3323 101.315C59.1002 101.433 58.8469 101.504 58.5872 101.524C58.5345 101.528 58.4819 101.53 58.4298 101.53Z" fill="#279CFF"/>
<path d="M48.9659 47.1629C48.4347 41.8682 44.955 36.805 39.6427 35.427C37.0505 34.7387 34.2985 34.9883 31.8725 36.1318C29.6763 37.2396 27.9497 39.0977 27.0058 41.3691C26.0744 43.6161 25.7177 46.0599 25.9682 48.4794C26.2518 51.1236 27.0958 53.677 28.4441 55.9692C29.885 58.5096 31.7587 60.7806 33.7254 62.9281C35.7292 65.1161 37.9963 67.1291 39.6824 69.5855C41.1778 71.764 42.3803 74.7228 40.9066 77.2302C40.3291 78.1495 39.4988 78.8829 38.5151 79.3424C37.5315 79.8019 36.4362 79.968 35.3605 79.8209C34.8328 79.7408 34.3226 79.5714 33.8517 79.32C33.3324 79.0428 32.8696 79.8324 33.3899 80.1101C35.3634 81.1637 37.8171 80.925 39.6814 79.7402C41.8304 78.3745 42.7896 75.9643 42.3869 73.4728C41.9277 70.6321 39.9469 68.1931 38.045 66.1484C36.0583 64.0126 33.9775 61.9731 32.1374 59.704C30.3197 57.4627 28.6968 54.9888 27.7239 52.2564C26.9068 49.973 26.6342 47.5303 26.9279 45.1229C27.2177 42.8239 28.1117 40.5459 29.7155 38.845C30.6021 37.9314 31.6635 37.2055 32.8365 36.7105C34.0095 36.2156 35.2701 35.9617 36.5432 35.964C39.1855 35.9302 41.7474 36.8721 43.7385 38.6094C45.7019 40.3655 47.0873 42.6751 47.7122 45.2341C47.8719 45.8679 47.9851 46.5126 48.0509 47.1629C48.1091 47.7433 49.0247 47.7493 48.9659 47.1629V47.1629Z" fill="#2F2E41"/>
<path d="M45.5266 47.0384C45.1279 47.0379 44.7425 46.8955 44.4393 46.6367C44.1361 46.3779 43.9349 46.0196 43.8718 45.6259C43.8088 45.2323 43.8879 44.8291 44.0951 44.4885C44.3023 44.1479 44.624 43.8922 45.0025 43.7672L49.347 42.3327C49.7694 42.1932 50.23 42.2273 50.6274 42.4273C51.0247 42.6274 51.3263 42.9771 51.4658 43.3996C51.6053 43.822 51.5712 44.2826 51.3712 44.6799C51.1711 45.0773 50.8214 45.3789 50.3989 45.5184L46.0544 46.9529C45.8842 47.0094 45.706 47.0383 45.5266 47.0384Z" fill="#2F2E41"/>
<path d="M74.8577 131.003H24.0789C23.7304 131.004 23.3877 130.913 23.0856 130.74C22.7834 130.566 22.5325 130.316 22.3583 130.014C22.184 129.712 22.0926 129.369 22.0932 129.021C22.0938 128.672 22.1865 128.33 22.3619 128.029L47.7513 84.0533C47.8391 83.9011 47.9462 83.7609 48.0702 83.6363L48.0751 83.6316L48.0772 83.6295C48.3553 83.3533 48.7103 83.1675 49.0958 83.0963C49.1214 83.0915 49.1471 83.0871 49.1731 83.0835C49.2708 83.0691 49.3695 83.0619 49.4684 83.062V83.062C49.8168 83.0599 50.1595 83.1507 50.4612 83.3249C50.763 83.4991 51.0129 83.7505 51.1853 84.0533L76.5748 128.029C76.7488 128.33 76.8404 128.672 76.8404 129.02C76.8404 129.368 76.7488 129.71 76.5747 130.012C76.4007 130.313 76.1504 130.563 75.849 130.737C75.5476 130.911 75.2057 131.003 74.8577 131.003V131.003Z" fill="#2F2E41"/>
<path d="M60.5283 66.1709L60.5113 65.5609C61.6462 65.5293 62.6467 65.4581 63.3985 64.9088C63.6117 64.7443 63.7869 64.5357 63.9122 64.2974C64.0375 64.059 64.1101 63.7965 64.1249 63.5276C64.1381 63.3633 64.1132 63.1982 64.0522 63.0451C63.9913 62.892 63.8958 62.755 63.7732 62.6448C63.2743 62.223 62.4713 62.3594 61.8858 62.6281L61.3811 62.8595L62.349 55.7861L62.9534 55.869L62.1301 61.8858C62.9255 61.652 63.6623 61.7524 64.167 62.1789C64.3608 62.3481 64.5129 62.5598 64.6113 62.7975C64.7097 63.0352 64.7519 63.2924 64.7345 63.5491C64.7167 63.9103 64.62 64.2633 64.4514 64.5833C64.2828 64.9033 64.0463 65.1826 63.7583 65.4015C62.7924 66.1074 61.537 66.1426 60.5283 66.1709Z" fill="#2F2E41"/>
<path d="M58.8573 56.3878H55.5719V56.9979H58.8573V56.3878Z" fill="#2F2E41"/>
<path d="M282.303 104.232L250.804 83.8443C250.586 83.7029 250.397 83.5198 250.249 83.3055C250.101 83.0911 249.997 82.8498 249.943 82.5952C249.888 82.3406 249.884 82.0778 249.931 81.8217C249.978 81.5656 250.075 81.3213 250.217 81.1028L252.663 77.3235C252.949 76.8826 253.399 76.5731 253.912 76.463C254.426 76.3529 254.963 76.4511 255.405 76.7361L286.903 97.124C287.344 97.4102 287.653 97.8595 287.764 98.3735C287.874 98.8875 287.775 99.4242 287.49 99.8658L285.044 103.645C284.758 104.086 284.309 104.396 283.795 104.506C283.281 104.616 282.744 104.517 282.303 104.232V104.232Z" fill="#279CFF"/>
<path d="M282.395 103.98L269.228 96.6275C268.817 96.3982 268.51 96.0196 268.372 95.5703C268.233 95.1209 268.272 94.6353 268.482 94.2142L271.532 88.0857C271.652 87.8436 271.825 87.6312 272.037 87.4638C272.25 87.2964 272.497 87.1782 272.76 87.1176C273.024 87.057 273.298 87.0556 273.562 87.1134C273.826 87.1712 274.074 87.2869 274.288 87.4521L286.832 97.1273C287.239 97.3915 287.524 97.8061 287.626 98.2802C287.728 98.7544 287.637 99.2496 287.375 99.6574L284.928 103.437C284.664 103.845 284.249 104.131 283.774 104.233C283.299 104.334 282.803 104.243 282.395 103.98V103.98Z" fill="#CCCCCC"/>
<path d="M283.676 80.3574C292.691 80.3574 300 73.0489 300 64.0334C300 55.0179 292.691 47.7093 283.676 47.7093C274.66 47.7093 267.352 55.0179 267.352 64.0334C267.352 73.0489 274.66 80.3574 283.676 80.3574Z" fill="#279CFF"/>
<path d="M284.265 163.725V126.204C284.266 125.679 284.475 125.175 284.847 124.803C285.219 124.432 285.722 124.222 286.248 124.222H290.75C291.276 124.222 291.78 124.432 292.151 124.803C292.523 125.175 292.732 125.679 292.733 126.204V163.725C292.732 164.251 292.523 164.755 292.151 165.127C291.78 165.498 291.276 165.707 290.75 165.708H286.248C285.722 165.707 285.219 165.498 284.847 165.127C284.475 164.755 284.266 164.251 284.265 163.725V163.725Z" fill="#2F2E41"/>
<path d="M275.361 163.725V126.204C275.362 125.679 275.571 125.175 275.943 124.803C276.314 124.432 276.818 124.222 277.344 124.222H281.846C282.372 124.222 282.875 124.432 283.247 124.803C283.619 125.175 283.828 125.679 283.828 126.204V163.725C283.828 164.251 283.619 164.755 283.247 165.127C282.875 165.498 282.372 165.707 281.846 165.708H277.344C276.818 165.707 276.314 165.498 275.943 165.127C275.571 164.755 275.362 164.251 275.361 163.725V163.725Z" fill="#2F2E41"/>
<path d="M271.651 128.48V85.0236C271.652 84.4979 271.861 83.994 272.233 83.6223C272.604 83.2507 273.108 83.0416 273.634 83.041H285.129C288.03 83.0443 290.811 84.1982 292.863 86.2497C294.914 88.3012 296.068 91.0827 296.072 93.9839V128.48C296.071 129.006 295.862 129.51 295.49 129.882C295.118 130.253 294.615 130.462 294.089 130.463H273.634C273.108 130.462 272.604 130.253 272.233 129.882C271.861 129.51 271.652 129.006 271.651 128.48Z" fill="#CCCCCC"/>
<path d="M269.427 68.5687L269.444 67.9587C268.309 67.9271 267.309 67.8559 266.557 67.3066C266.344 67.1421 266.169 66.9335 266.043 66.6952C265.918 66.4568 265.845 66.1943 265.831 65.9254C265.817 65.7611 265.842 65.596 265.903 65.4429C265.964 65.2898 266.06 65.1528 266.182 65.0426C266.681 64.6208 267.484 64.7572 268.07 65.0259L268.574 65.2573L267.607 58.184L267.002 58.2668L267.825 64.2836C267.03 64.0498 266.293 64.1502 265.789 64.5767C265.595 64.7459 265.443 64.9576 265.344 65.1953C265.246 65.433 265.204 65.6902 265.221 65.9469C265.239 66.3081 265.336 66.6611 265.504 66.9811C265.673 67.3011 265.909 67.5804 266.197 67.7993C267.163 68.5052 268.419 68.5404 269.427 68.5687Z" fill="#2F2E41"/>
<path d="M274.384 58.7856H271.098V59.3957H274.384V58.7856Z" fill="#2F2E41"/>
<path d="M263.862 127.539L259.885 125.429C259.421 125.182 259.074 124.761 258.92 124.258C258.766 123.756 258.818 123.213 259.063 122.748L276.652 89.605C276.899 89.1411 277.32 88.794 277.822 88.64C278.325 88.4859 278.868 88.5374 279.333 88.7832L283.309 90.8936C283.773 91.1405 284.12 91.5613 284.274 92.0638C284.428 92.5663 284.377 93.1094 284.131 93.574L266.543 126.717C266.421 126.947 266.255 127.151 266.054 127.317C265.853 127.483 265.622 127.608 265.373 127.685C265.124 127.761 264.862 127.787 264.603 127.762C264.344 127.737 264.092 127.662 263.862 127.539V127.539Z" fill="#279CFF"/>
<path d="M285.397 93.5038L277.685 107.257C277.492 107.686 277.142 108.024 276.706 108.202C276.27 108.379 275.783 108.382 275.345 108.209L268.976 105.7C268.725 105.601 268.498 105.447 268.313 105.25C268.128 105.053 267.989 104.818 267.905 104.56C267.822 104.303 267.797 104.03 267.832 103.762C267.867 103.494 267.961 103.237 268.107 103.009L276.661 89.0659C276.889 88.6379 277.278 88.3176 277.741 88.1753C278.205 88.0329 278.706 88.0801 279.135 88.3064L284.637 91.0272C285.066 91.2552 285.387 91.6441 285.529 92.1084C285.672 92.5728 285.624 93.0746 285.397 93.5038V93.5038Z" fill="#CCCCCC"/>
<path d="M279.117 53.3148C276.318 53.7523 272.93 54.2002 270.826 51.8442C270.409 51.4103 270.118 50.8715 269.984 50.2853C269.85 49.699 269.877 49.0873 270.064 48.5154C270.469 47.3581 271.516 46.4764 272.614 45.9975C274.255 45.2814 276.125 45.3255 277.879 45.3453C277.997 45.3412 278.11 45.2912 278.192 45.2058C278.275 45.1205 278.321 45.0064 278.321 44.8878C278.321 44.7691 278.275 44.6551 278.192 44.5697C278.11 44.4844 277.997 44.4344 277.879 44.4303C276.089 44.41 274.215 44.393 272.521 45.0532C271.187 45.5728 269.951 46.5361 269.348 47.862C268.024 50.7687 270.469 53.6073 273.231 54.3148C275.247 54.8311 277.34 54.5129 279.36 54.1972C279.94 54.1065 279.694 53.2247 279.117 53.3148V53.3148Z" fill="#2F2E41"/>
<path d="M240.756 97.5657H255.948C256.898 90.5547 254.802 84.0093 255.948 79.3353H240.756C237.896 85.4121 237.896 91.4889 240.756 97.5657Z" fill="#3F3D56"/>
</g>
<defs>
<clipPath id="clip0">
<rect width="300" height="165.774" fill="white"/>
</clipPath>
</defs>
</svg>
